<mxfile host="app.diagrams.net" agent="Mozilla/5.0 (Windows NT 10.0; Win64; x64) AppleWebKit/537.36 (KHTML, like Gecko) Chrome/134.0.0.0 Safari/537.36" version="26.1.1" pages="3">
  <diagram id="C5RBs43oDa-KdzZeNtuy" name="use-case-Diagram">
    <mxGraphModel dx="2704" dy="522" grid="1" gridSize="10" guides="1" tooltips="1" connect="1" arrows="1" fold="1" page="1" pageScale="1" pageWidth="827" pageHeight="1169" math="0" shadow="0">
      <root>
        <mxCell id="WIyWlLk6GJQsqaUBKTNV-0" />
        <mxCell id="WIyWlLk6GJQsqaUBKTNV-1" parent="WIyWlLk6GJQsqaUBKTNV-0" />
        <mxCell id="hcYKeLWvqQQFtby9EGZp-0" value="Actor" style="shape=umlActor;verticalLabelPosition=bottom;verticalAlign=top;html=1;outlineConnect=0;" parent="WIyWlLk6GJQsqaUBKTNV-1" vertex="1">
          <mxGeometry x="-800" y="280" width="220" height="350" as="geometry" />
        </mxCell>
        <mxCell id="hcYKeLWvqQQFtby9EGZp-4" value="&lt;font style=&quot;font-size: 24px;&quot;&gt;Project Manager&lt;/font&gt;" style="text;html=1;align=center;verticalAlign=middle;whiteSpace=wrap;rounded=0;" parent="WIyWlLk6GJQsqaUBKTNV-1" vertex="1">
          <mxGeometry x="-840" y="170" width="260" height="90" as="geometry" />
        </mxCell>
        <mxCell id="hcYKeLWvqQQFtby9EGZp-6" value="" style="endArrow=none;html=1;rounded=0;" parent="WIyWlLk6GJQsqaUBKTNV-1" target="hcYKeLWvqQQFtby9EGZp-7" edge="1">
          <mxGeometry width="50" height="50" relative="1" as="geometry">
            <mxPoint x="-580" y="290" as="sourcePoint" />
            <mxPoint x="-470" y="110" as="targetPoint" />
          </mxGeometry>
        </mxCell>
        <mxCell id="hcYKeLWvqQQFtby9EGZp-7" value="&lt;font style=&quot;font-size: 14px;&quot;&gt;Add Employee&lt;/font&gt;" style="ellipse;whiteSpace=wrap;html=1;" parent="WIyWlLk6GJQsqaUBKTNV-1" vertex="1">
          <mxGeometry x="-533" y="80" width="120" height="80" as="geometry" />
        </mxCell>
        <mxCell id="hcYKeLWvqQQFtby9EGZp-8" value="" style="endArrow=none;html=1;rounded=0;" parent="WIyWlLk6GJQsqaUBKTNV-1" source="hcYKeLWvqQQFtby9EGZp-0" target="hcYKeLWvqQQFtby9EGZp-9" edge="1">
          <mxGeometry width="50" height="50" relative="1" as="geometry">
            <mxPoint x="-420" y="430" as="sourcePoint" />
            <mxPoint x="-320" y="190" as="targetPoint" />
          </mxGeometry>
        </mxCell>
        <mxCell id="hcYKeLWvqQQFtby9EGZp-9" value="Add Task&lt;div&gt;&lt;br&gt;&lt;/div&gt;" style="ellipse;whiteSpace=wrap;html=1;" parent="WIyWlLk6GJQsqaUBKTNV-1" vertex="1">
          <mxGeometry x="-380" y="150" width="120" height="80" as="geometry" />
        </mxCell>
        <mxCell id="hcYKeLWvqQQFtby9EGZp-10" value="" style="endArrow=none;html=1;rounded=0;" parent="WIyWlLk6GJQsqaUBKTNV-1" source="hcYKeLWvqQQFtby9EGZp-0" target="hcYKeLWvqQQFtby9EGZp-11" edge="1">
          <mxGeometry width="50" height="50" relative="1" as="geometry">
            <mxPoint x="-420" y="490" as="sourcePoint" />
            <mxPoint x="-200" y="280" as="targetPoint" />
          </mxGeometry>
        </mxCell>
        <mxCell id="hcYKeLWvqQQFtby9EGZp-11" value="Assign Task to employee" style="ellipse;whiteSpace=wrap;html=1;" parent="WIyWlLk6GJQsqaUBKTNV-1" vertex="1">
          <mxGeometry x="-260" y="240" width="120" height="80" as="geometry" />
        </mxCell>
        <mxCell id="hcYKeLWvqQQFtby9EGZp-12" value="" style="endArrow=none;html=1;rounded=0;" parent="WIyWlLk6GJQsqaUBKTNV-1" source="hcYKeLWvqQQFtby9EGZp-0" target="hcYKeLWvqQQFtby9EGZp-13" edge="1">
          <mxGeometry width="50" height="50" relative="1" as="geometry">
            <mxPoint x="-420" y="560" as="sourcePoint" />
            <mxPoint x="-170" y="430" as="targetPoint" />
          </mxGeometry>
        </mxCell>
        <mxCell id="hcYKeLWvqQQFtby9EGZp-13" value="View employees with ther tasks" style="ellipse;whiteSpace=wrap;html=1;" parent="WIyWlLk6GJQsqaUBKTNV-1" vertex="1">
          <mxGeometry x="-229.99999999999955" y="390" width="120" height="80" as="geometry" />
        </mxCell>
        <mxCell id="hcYKeLWvqQQFtby9EGZp-14" value="" style="endArrow=none;html=1;rounded=0;" parent="WIyWlLk6GJQsqaUBKTNV-1" source="hcYKeLWvqQQFtby9EGZp-0" target="hcYKeLWvqQQFtby9EGZp-15" edge="1">
          <mxGeometry width="50" height="50" relative="1" as="geometry">
            <mxPoint x="-420" y="610" as="sourcePoint" />
            <mxPoint x="-120" y="550" as="targetPoint" />
          </mxGeometry>
        </mxCell>
        <mxCell id="hcYKeLWvqQQFtby9EGZp-15" value="Modify status of a task" style="ellipse;whiteSpace=wrap;html=1;" parent="WIyWlLk6GJQsqaUBKTNV-1" vertex="1">
          <mxGeometry x="-179.99999999999955" y="510" width="120" height="80" as="geometry" />
        </mxCell>
        <mxCell id="hcYKeLWvqQQFtby9EGZp-16" value="" style="endArrow=none;html=1;rounded=0;" parent="WIyWlLk6GJQsqaUBKTNV-1" source="hcYKeLWvqQQFtby9EGZp-0" target="hcYKeLWvqQQFtby9EGZp-17" edge="1">
          <mxGeometry width="50" height="50" relative="1" as="geometry">
            <mxPoint x="-420" y="720" as="sourcePoint" />
            <mxPoint x="-150" y="670" as="targetPoint" />
          </mxGeometry>
        </mxCell>
        <mxCell id="hcYKeLWvqQQFtby9EGZp-17" value="View Statistics about employees" style="ellipse;whiteSpace=wrap;html=1;" parent="WIyWlLk6GJQsqaUBKTNV-1" vertex="1">
          <mxGeometry x="-209.99999999999955" y="630" width="120" height="80" as="geometry" />
        </mxCell>
      </root>
    </mxGraphModel>
  </diagram>
  <diagram id="sAQ5zIrsNqG7S6Z7Eys6" name="PackageDiagram">
    <mxGraphModel dx="1877" dy="1691" grid="1" gridSize="10" guides="1" tooltips="1" connect="1" arrows="1" fold="1" page="1" pageScale="1" pageWidth="827" pageHeight="1169" math="0" shadow="0">
      <root>
        <mxCell id="0" />
        <mxCell id="1" parent="0" />
        <mxCell id="b7KAdncIvJaY0aT_uzYe-1" value="Graphical User Interface" style="shape=folder;fontStyle=1;spacingTop=10;tabWidth=40;tabHeight=14;tabPosition=left;html=1;whiteSpace=wrap;" parent="1" vertex="1">
          <mxGeometry x="100" y="-680" width="240" height="114" as="geometry" />
        </mxCell>
        <mxCell id="b7KAdncIvJaY0aT_uzYe-2" value="" style="endArrow=block;dashed=1;endFill=0;endSize=12;html=1;rounded=0;exitX=0.5;exitY=1;exitDx=0;exitDy=0;exitPerimeter=0;entryX=0.512;entryY=0.089;entryDx=0;entryDy=0;entryPerimeter=0;" parent="1" source="b7KAdncIvJaY0aT_uzYe-1" target="b7KAdncIvJaY0aT_uzYe-3" edge="1">
          <mxGeometry width="160" relative="1" as="geometry">
            <mxPoint x="260" y="-440" as="sourcePoint" />
            <mxPoint x="220" y="-420" as="targetPoint" />
          </mxGeometry>
        </mxCell>
        <mxCell id="b7KAdncIvJaY0aT_uzYe-3" value="Business Logic" style="shape=folder;fontStyle=1;spacingTop=10;tabWidth=40;tabHeight=14;tabPosition=left;html=1;whiteSpace=wrap;" parent="1" vertex="1">
          <mxGeometry x="80" y="-420" width="280" height="130" as="geometry" />
        </mxCell>
        <mxCell id="b7KAdncIvJaY0aT_uzYe-6" value="" style="endArrow=block;dashed=1;endFill=0;endSize=12;html=1;rounded=0;exitX=0.5;exitY=1;exitDx=0;exitDy=0;exitPerimeter=0;entryX=0.501;entryY=0.086;entryDx=0;entryDy=0;entryPerimeter=0;" parent="1" target="b7KAdncIvJaY0aT_uzYe-7" edge="1">
          <mxGeometry width="160" relative="1" as="geometry">
            <mxPoint x="219.58" y="-290" as="sourcePoint" />
            <mxPoint x="220" y="-180" as="targetPoint" />
          </mxGeometry>
        </mxCell>
        <mxCell id="b7KAdncIvJaY0aT_uzYe-7" value="DataAccess" style="shape=folder;fontStyle=1;spacingTop=10;tabWidth=40;tabHeight=14;tabPosition=left;html=1;whiteSpace=wrap;" parent="1" vertex="1">
          <mxGeometry x="92.5" y="-190" width="255" height="140" as="geometry" />
        </mxCell>
        <mxCell id="b7KAdncIvJaY0aT_uzYe-8" value="DataModel" style="shape=folder;fontStyle=1;spacingTop=10;tabWidth=40;tabHeight=14;tabPosition=left;html=1;whiteSpace=wrap;" parent="1" vertex="1">
          <mxGeometry x="510" y="-410" width="260" height="110" as="geometry" />
        </mxCell>
        <mxCell id="b7KAdncIvJaY0aT_uzYe-11" value="" style="endArrow=block;dashed=1;endFill=0;endSize=12;html=1;rounded=0;exitX=1;exitY=0.488;exitDx=0;exitDy=0;exitPerimeter=0;entryX=0;entryY=0;entryDx=150;entryDy=14;entryPerimeter=0;" parent="1" source="b7KAdncIvJaY0aT_uzYe-1" target="b7KAdncIvJaY0aT_uzYe-8" edge="1">
          <mxGeometry width="160" relative="1" as="geometry">
            <mxPoint x="470" y="-400" as="sourcePoint" />
            <mxPoint x="630" y="-400" as="targetPoint" />
          </mxGeometry>
        </mxCell>
        <mxCell id="b7KAdncIvJaY0aT_uzYe-14" value="" style="endArrow=block;dashed=1;endFill=0;endSize=12;html=1;rounded=0;exitX=0;exitY=0;exitDx=280;exitDy=72;exitPerimeter=0;entryX=0;entryY=0;entryDx=0;entryDy=62;entryPerimeter=0;" parent="1" source="b7KAdncIvJaY0aT_uzYe-3" target="b7KAdncIvJaY0aT_uzYe-8" edge="1">
          <mxGeometry width="160" relative="1" as="geometry">
            <mxPoint x="470" y="-230" as="sourcePoint" />
            <mxPoint x="630" y="-230" as="targetPoint" />
          </mxGeometry>
        </mxCell>
        <mxCell id="b7KAdncIvJaY0aT_uzYe-16" value="" style="endArrow=block;dashed=1;endFill=0;endSize=12;html=1;rounded=0;exitX=0;exitY=0;exitDx=255;exitDy=77;exitPerimeter=0;entryX=0.5;entryY=1;entryDx=0;entryDy=0;entryPerimeter=0;" parent="1" source="b7KAdncIvJaY0aT_uzYe-7" target="b7KAdncIvJaY0aT_uzYe-8" edge="1">
          <mxGeometry width="160" relative="1" as="geometry">
            <mxPoint x="470" y="-230" as="sourcePoint" />
            <mxPoint x="630" y="-230" as="targetPoint" />
          </mxGeometry>
        </mxCell>
        <mxCell id="b7KAdncIvJaY0aT_uzYe-17" value="" style="endArrow=classic;html=1;rounded=0;entryX=0.49;entryY=0.1;entryDx=0;entryDy=0;entryPerimeter=0;" parent="1" target="b7KAdncIvJaY0aT_uzYe-1" edge="1">
          <mxGeometry width="50" height="50" relative="1" as="geometry">
            <mxPoint x="200" y="-880" as="sourcePoint" />
            <mxPoint x="570" y="-760" as="targetPoint" />
          </mxGeometry>
        </mxCell>
        <mxCell id="b7KAdncIvJaY0aT_uzYe-19" value="&lt;font style=&quot;font-size: 14px;&quot;&gt;Contains the implementation of the GUI&amp;nbsp; with classes : MainMenuPage,ModifyStatusPage,&lt;/font&gt;&lt;div&gt;&lt;span style=&quot;background-color: initial;&quot;&gt;&lt;font size=&quot;3&quot;&gt;ViewEmployeesPage,ViewStatisticsPage,&lt;/font&gt;&lt;/span&gt;&lt;/div&gt;&lt;div&gt;&lt;span style=&quot;background-color: initial;&quot;&gt;&lt;font size=&quot;3&quot;&gt;AddEmployeePage,AddTaskPage,&lt;/font&gt;&lt;/span&gt;&lt;/div&gt;&lt;div&gt;&lt;span style=&quot;background-color: initial;&quot;&gt;&lt;font size=&quot;3&quot;&gt;AssignTaskPage ,OperationsOnComplexTaskPage&lt;/font&gt;&lt;/span&gt;&lt;/div&gt;" style="text;html=1;align=center;verticalAlign=middle;whiteSpace=wrap;rounded=0;" parent="1" vertex="1">
          <mxGeometry x="92.5" y="-1010" width="307.5" height="120" as="geometry" />
        </mxCell>
        <mxCell id="b7KAdncIvJaY0aT_uzYe-21" value="" style="endArrow=classic;html=1;rounded=0;entryX=0.769;entryY=0.091;entryDx=0;entryDy=0;entryPerimeter=0;" parent="1" target="b7KAdncIvJaY0aT_uzYe-8" edge="1">
          <mxGeometry width="50" height="50" relative="1" as="geometry">
            <mxPoint x="690" y="-570" as="sourcePoint" />
            <mxPoint x="730" y="-560" as="targetPoint" />
          </mxGeometry>
        </mxCell>
        <mxCell id="b7KAdncIvJaY0aT_uzYe-22" value="&lt;font style=&quot;font-size: 14px;&quot;&gt;Contains the implementation of&amp;nbsp; Employee,Task, SimpleTask, ComplexTask,EmployeeHourRetainer&lt;/font&gt;" style="text;html=1;align=center;verticalAlign=middle;whiteSpace=wrap;rounded=0;" parent="1" vertex="1">
          <mxGeometry x="530" y="-696" width="240" height="130" as="geometry" />
        </mxCell>
        <mxCell id="b7KAdncIvJaY0aT_uzYe-23" value="" style="endArrow=classic;html=1;rounded=0;entryX=0;entryY=0;entryDx=0;entryDy=72;entryPerimeter=0;" parent="1" target="b7KAdncIvJaY0aT_uzYe-3" edge="1">
          <mxGeometry width="50" height="50" relative="1" as="geometry">
            <mxPoint x="-160" y="-440" as="sourcePoint" />
            <mxPoint x="470" y="-320" as="targetPoint" />
          </mxGeometry>
        </mxCell>
        <mxCell id="b7KAdncIvJaY0aT_uzYe-24" value="&lt;font style=&quot;font-size: 14px;&quot;&gt;Contains the Implementation of TaskManagement(the logic for tasks ), EmployeesManagement(the logic for employees) and Utility(some methods to manipulate data of Tasks and/or Employees&lt;/font&gt;" style="text;html=1;align=center;verticalAlign=middle;whiteSpace=wrap;rounded=0;" parent="1" vertex="1">
          <mxGeometry x="-390" y="-560" width="230" height="190" as="geometry" />
        </mxCell>
        <mxCell id="b7KAdncIvJaY0aT_uzYe-25" value="" style="endArrow=classic;html=1;rounded=0;entryX=0;entryY=0;entryDx=0;entryDy=77;entryPerimeter=0;" parent="1" target="b7KAdncIvJaY0aT_uzYe-7" edge="1">
          <mxGeometry width="50" height="50" relative="1" as="geometry">
            <mxPoint x="-330" y="-180" as="sourcePoint" />
            <mxPoint x="100" y="-170" as="targetPoint" />
          </mxGeometry>
        </mxCell>
        <mxCell id="b7KAdncIvJaY0aT_uzYe-26" value="&lt;font style=&quot;font-size: 14px;&quot;&gt;Contains the class for&lt;br/&gt;persisting data using&lt;br/&gt;serialization(SerializationOperations)&lt;/font&gt;" style="text;html=1;align=center;verticalAlign=middle;whiteSpace=wrap;rounded=0;" parent="1" vertex="1">
          <mxGeometry x="-560" y="-250" width="240" height="120" as="geometry" />
        </mxCell>
      </root>
    </mxGraphModel>
  </diagram>
  <diagram id="93zc1zAhfyyxOdkMLuDo" name="classDiagram">
    <mxGraphModel dx="3987" dy="2329" grid="1" gridSize="10" guides="1" tooltips="1" connect="1" arrows="1" fold="1" page="1" pageScale="1" pageWidth="827" pageHeight="1169" math="0" shadow="0">
      <root>
        <mxCell id="0" />
        <mxCell id="1" parent="0" />
        <mxCell id="gsCKZglPHFeSLRYfXybQ-1" value="&lt;i&gt;Task&lt;/i&gt;" style="swimlane;fontStyle=1;align=center;verticalAlign=top;childLayout=stackLayout;horizontal=1;startSize=26;horizontalStack=0;resizeParent=1;resizeParentMax=0;resizeLast=0;collapsible=1;marginBottom=0;whiteSpace=wrap;html=1;" parent="1" vertex="1">
          <mxGeometry x="350" y="410" width="160" height="138" as="geometry" />
        </mxCell>
        <mxCell id="gsCKZglPHFeSLRYfXybQ-2" value="-idTask:int&lt;div&gt;&lt;br&gt;&lt;/div&gt;" style="text;strokeColor=none;fillColor=none;align=left;verticalAlign=top;spacingLeft=4;spacingRight=4;overflow=hidden;rotatable=0;points=[[0,0.5],[1,0.5]];portConstraint=eastwest;whiteSpace=wrap;html=1;" parent="gsCKZglPHFeSLRYfXybQ-1" vertex="1">
          <mxGeometry y="26" width="160" height="26" as="geometry" />
        </mxCell>
        <mxCell id="gsCKZglPHFeSLRYfXybQ-7" value="-title:String" style="text;strokeColor=none;fillColor=none;align=left;verticalAlign=top;spacingLeft=4;spacingRight=4;overflow=hidden;rotatable=0;points=[[0,0.5],[1,0.5]];portConstraint=eastwest;whiteSpace=wrap;html=1;" parent="gsCKZglPHFeSLRYfXybQ-1" vertex="1">
          <mxGeometry y="52" width="160" height="26" as="geometry" />
        </mxCell>
        <mxCell id="hb1Ye0WjrdyC9d1Gobza-20" value="-statusTask : String" style="text;strokeColor=none;fillColor=none;align=left;verticalAlign=top;spacingLeft=4;spacingRight=4;overflow=hidden;rotatable=0;points=[[0,0.5],[1,0.5]];portConstraint=eastwest;whiteSpace=wrap;html=1;" parent="gsCKZglPHFeSLRYfXybQ-1" vertex="1">
          <mxGeometry y="78" width="160" height="26" as="geometry" />
        </mxCell>
        <mxCell id="gsCKZglPHFeSLRYfXybQ-3" value="" style="line;strokeWidth=1;fillColor=none;align=left;verticalAlign=middle;spacingTop=-1;spacingLeft=3;spacingRight=3;rotatable=0;labelPosition=right;points=[];portConstraint=eastwest;strokeColor=inherit;" parent="gsCKZglPHFeSLRYfXybQ-1" vertex="1">
          <mxGeometry y="104" width="160" height="8" as="geometry" />
        </mxCell>
        <mxCell id="gsCKZglPHFeSLRYfXybQ-4" value="&lt;i&gt;+estimateDuration() :int&lt;/i&gt;" style="text;strokeColor=none;fillColor=none;align=left;verticalAlign=top;spacingLeft=4;spacingRight=4;overflow=hidden;rotatable=0;points=[[0,0.5],[1,0.5]];portConstraint=eastwest;whiteSpace=wrap;html=1;" parent="gsCKZglPHFeSLRYfXybQ-1" vertex="1">
          <mxGeometry y="112" width="160" height="26" as="geometry" />
        </mxCell>
        <mxCell id="gsCKZglPHFeSLRYfXybQ-8" value="SimpleTask" style="swimlane;fontStyle=1;align=center;verticalAlign=top;childLayout=stackLayout;horizontal=1;startSize=26;horizontalStack=0;resizeParent=1;resizeParentMax=0;resizeLast=0;collapsible=1;marginBottom=0;whiteSpace=wrap;html=1;" parent="1" vertex="1">
          <mxGeometry x="234" y="710" width="180" height="112" as="geometry" />
        </mxCell>
        <mxCell id="gsCKZglPHFeSLRYfXybQ-9" value="-startHour : int" style="text;strokeColor=none;fillColor=none;align=left;verticalAlign=top;spacingLeft=4;spacingRight=4;overflow=hidden;rotatable=0;points=[[0,0.5],[1,0.5]];portConstraint=eastwest;whiteSpace=wrap;html=1;" parent="gsCKZglPHFeSLRYfXybQ-8" vertex="1">
          <mxGeometry y="26" width="180" height="26" as="geometry" />
        </mxCell>
        <mxCell id="gsCKZglPHFeSLRYfXybQ-19" value="-endHour : int" style="text;strokeColor=none;fillColor=none;align=left;verticalAlign=top;spacingLeft=4;spacingRight=4;overflow=hidden;rotatable=0;points=[[0,0.5],[1,0.5]];portConstraint=eastwest;whiteSpace=wrap;html=1;" parent="gsCKZglPHFeSLRYfXybQ-8" vertex="1">
          <mxGeometry y="52" width="180" height="26" as="geometry" />
        </mxCell>
        <mxCell id="gsCKZglPHFeSLRYfXybQ-10" value="" style="line;strokeWidth=1;fillColor=none;align=left;verticalAlign=middle;spacingTop=-1;spacingLeft=3;spacingRight=3;rotatable=0;labelPosition=right;points=[];portConstraint=eastwest;strokeColor=inherit;" parent="gsCKZglPHFeSLRYfXybQ-8" vertex="1">
          <mxGeometry y="78" width="180" height="8" as="geometry" />
        </mxCell>
        <mxCell id="gsCKZglPHFeSLRYfXybQ-11" value="+ estimateDuration(): int" style="text;strokeColor=none;fillColor=none;align=left;verticalAlign=top;spacingLeft=4;spacingRight=4;overflow=hidden;rotatable=0;points=[[0,0.5],[1,0.5]];portConstraint=eastwest;whiteSpace=wrap;html=1;" parent="gsCKZglPHFeSLRYfXybQ-8" vertex="1">
          <mxGeometry y="86" width="180" height="26" as="geometry" />
        </mxCell>
        <mxCell id="gsCKZglPHFeSLRYfXybQ-12" value="ComplexTask" style="swimlane;fontStyle=1;align=center;verticalAlign=top;childLayout=stackLayout;horizontal=1;startSize=26;horizontalStack=0;resizeParent=1;resizeParentMax=0;resizeLast=0;collapsible=1;marginBottom=0;whiteSpace=wrap;html=1;" parent="1" vertex="1">
          <mxGeometry x="530" y="686" width="197" height="164" as="geometry" />
        </mxCell>
        <mxCell id="gsCKZglPHFeSLRYfXybQ-13" value="-listOfAComplexTask : List&amp;lt;Task&amp;gt;;" style="text;strokeColor=none;fillColor=none;align=left;verticalAlign=top;spacingLeft=4;spacingRight=4;overflow=hidden;rotatable=0;points=[[0,0.5],[1,0.5]];portConstraint=eastwest;whiteSpace=wrap;html=1;" parent="gsCKZglPHFeSLRYfXybQ-12" vertex="1">
          <mxGeometry y="26" width="197" height="26" as="geometry" />
        </mxCell>
        <mxCell id="gsCKZglPHFeSLRYfXybQ-14" value="" style="line;strokeWidth=1;fillColor=none;align=left;verticalAlign=middle;spacingTop=-1;spacingLeft=3;spacingRight=3;rotatable=0;labelPosition=right;points=[];portConstraint=eastwest;strokeColor=inherit;" parent="gsCKZglPHFeSLRYfXybQ-12" vertex="1">
          <mxGeometry y="52" width="197" height="8" as="geometry" />
        </mxCell>
        <mxCell id="gsCKZglPHFeSLRYfXybQ-15" value="+ estimateDuration(): int" style="text;strokeColor=none;fillColor=none;align=left;verticalAlign=top;spacingLeft=4;spacingRight=4;overflow=hidden;rotatable=0;points=[[0,0.5],[1,0.5]];portConstraint=eastwest;whiteSpace=wrap;html=1;" parent="gsCKZglPHFeSLRYfXybQ-12" vertex="1">
          <mxGeometry y="60" width="197" height="26" as="geometry" />
        </mxCell>
        <mxCell id="gsCKZglPHFeSLRYfXybQ-20" value="+ addTask(task : Task) : void&lt;div&gt;&lt;br&gt;&lt;/div&gt;" style="text;strokeColor=none;fillColor=none;align=left;verticalAlign=top;spacingLeft=4;spacingRight=4;overflow=hidden;rotatable=0;points=[[0,0.5],[1,0.5]];portConstraint=eastwest;whiteSpace=wrap;html=1;" parent="gsCKZglPHFeSLRYfXybQ-12" vertex="1">
          <mxGeometry y="86" width="197" height="26" as="geometry" />
        </mxCell>
        <mxCell id="gsCKZglPHFeSLRYfXybQ-21" value="+ deleteTask(task : Task) : void" style="text;strokeColor=none;fillColor=none;align=left;verticalAlign=top;spacingLeft=4;spacingRight=4;overflow=hidden;rotatable=0;points=[[0,0.5],[1,0.5]];portConstraint=eastwest;whiteSpace=wrap;html=1;" parent="gsCKZglPHFeSLRYfXybQ-12" vertex="1">
          <mxGeometry y="112" width="197" height="26" as="geometry" />
        </mxCell>
        <mxCell id="p8pjEw0joS4cmYBz9ySb-9" value="+ findTask(task : Task) : Task" style="text;strokeColor=none;fillColor=none;align=left;verticalAlign=top;spacingLeft=4;spacingRight=4;overflow=hidden;rotatable=0;points=[[0,0.5],[1,0.5]];portConstraint=eastwest;whiteSpace=wrap;html=1;" parent="gsCKZglPHFeSLRYfXybQ-12" vertex="1">
          <mxGeometry y="138" width="197" height="26" as="geometry" />
        </mxCell>
        <mxCell id="gsCKZglPHFeSLRYfXybQ-16" value="" style="endArrow=block;endSize=16;endFill=0;html=1;rounded=0;exitX=0.5;exitY=0;exitDx=0;exitDy=0;entryX=0.459;entryY=1.045;entryDx=0;entryDy=0;entryPerimeter=0;" parent="1" source="gsCKZglPHFeSLRYfXybQ-8" target="gsCKZglPHFeSLRYfXybQ-4" edge="1">
          <mxGeometry width="160" relative="1" as="geometry">
            <mxPoint x="320" y="380" as="sourcePoint" />
            <mxPoint x="480" y="380" as="targetPoint" />
          </mxGeometry>
        </mxCell>
        <mxCell id="gsCKZglPHFeSLRYfXybQ-17" value="" style="endArrow=block;endSize=16;endFill=0;html=1;rounded=0;exitX=0.564;exitY=-0.018;exitDx=0;exitDy=0;exitPerimeter=0;entryX=0.606;entryY=1.154;entryDx=0;entryDy=0;entryPerimeter=0;" parent="1" source="gsCKZglPHFeSLRYfXybQ-12" target="gsCKZglPHFeSLRYfXybQ-4" edge="1">
          <mxGeometry width="160" relative="1" as="geometry">
            <mxPoint x="320" y="270" as="sourcePoint" />
            <mxPoint x="480" y="270" as="targetPoint" />
          </mxGeometry>
        </mxCell>
        <mxCell id="gsCKZglPHFeSLRYfXybQ-22" value="" style="endArrow=diamondThin;endFill=0;endSize=24;html=1;rounded=0;entryX=1;entryY=0.5;entryDx=0;entryDy=0;exitX=1;exitY=0.5;exitDx=0;exitDy=0;" parent="1" source="gsCKZglPHFeSLRYfXybQ-7" target="gsCKZglPHFeSLRYfXybQ-20" edge="1">
          <mxGeometry width="160" relative="1" as="geometry">
            <mxPoint x="410" y="187" as="sourcePoint" />
            <mxPoint x="550" y="330" as="targetPoint" />
            <Array as="points">
              <mxPoint x="780" y="480" />
              <mxPoint x="780" y="590" />
              <mxPoint x="780" y="785" />
            </Array>
          </mxGeometry>
        </mxCell>
        <mxCell id="gsCKZglPHFeSLRYfXybQ-23" value="TasksManagement" style="swimlane;fontStyle=1;align=center;verticalAlign=top;childLayout=stackLayout;horizontal=1;startSize=26;horizontalStack=0;resizeParent=1;resizeParentMax=0;resizeLast=0;collapsible=1;marginBottom=0;whiteSpace=wrap;html=1;" parent="1" vertex="1">
          <mxGeometry x="-410" y="130" width="630" height="580" as="geometry" />
        </mxCell>
        <mxCell id="gsCKZglPHFeSLRYfXybQ-24" value="- map : Map&amp;lt;Employee , List &amp;lt;Task&amp;gt;&amp;gt;" style="text;strokeColor=none;fillColor=none;align=left;verticalAlign=top;spacingLeft=4;spacingRight=4;overflow=hidden;rotatable=0;points=[[0,0.5],[1,0.5]];portConstraint=eastwest;whiteSpace=wrap;html=1;" parent="gsCKZglPHFeSLRYfXybQ-23" vertex="1">
          <mxGeometry y="26" width="630" height="26" as="geometry" />
        </mxCell>
        <mxCell id="4f8afUCtdIZkkw5ZLQad-1" value="- errorMessageTask : String" style="text;strokeColor=none;fillColor=none;align=left;verticalAlign=top;spacingLeft=4;spacingRight=4;overflow=hidden;rotatable=0;points=[[0,0.5],[1,0.5]];portConstraint=eastwest;whiteSpace=wrap;html=1;" parent="gsCKZglPHFeSLRYfXybQ-23" vertex="1">
          <mxGeometry y="52" width="630" height="26" as="geometry" />
        </mxCell>
        <mxCell id="_wk4xb8OxTAzbN9ZgH_I-1" value="&lt;u&gt;- idAutoIncrement : Integer&lt;/u&gt;" style="text;strokeColor=none;fillColor=none;align=left;verticalAlign=top;spacingLeft=4;spacingRight=4;overflow=hidden;rotatable=0;points=[[0,0.5],[1,0.5]];portConstraint=eastwest;whiteSpace=wrap;html=1;" parent="gsCKZglPHFeSLRYfXybQ-23" vertex="1">
          <mxGeometry y="78" width="630" height="26" as="geometry" />
        </mxCell>
        <mxCell id="_ZY3OqY5vGH6_oPAg5ww-28" value="-listOfTaskUnassigned : List&amp;lt;Task&amp;gt;" style="text;strokeColor=none;fillColor=none;align=left;verticalAlign=top;spacingLeft=4;spacingRight=4;overflow=hidden;rotatable=0;points=[[0,0.5],[1,0.5]];portConstraint=eastwest;whiteSpace=wrap;html=1;" parent="gsCKZglPHFeSLRYfXybQ-23" vertex="1">
          <mxGeometry y="104" width="630" height="26" as="geometry" />
        </mxCell>
        <mxCell id="gsCKZglPHFeSLRYfXybQ-25" value="" style="line;strokeWidth=1;fillColor=none;align=left;verticalAlign=middle;spacingTop=-1;spacingLeft=3;spacingRight=3;rotatable=0;labelPosition=right;points=[];portConstraint=eastwest;strokeColor=inherit;" parent="gsCKZglPHFeSLRYfXybQ-23" vertex="1">
          <mxGeometry y="130" width="630" height="8" as="geometry" />
        </mxCell>
        <mxCell id="F0ha7dF1QaVIKSSiVNvj-2" value="+ serializeMap() : void" style="text;strokeColor=none;fillColor=none;align=left;verticalAlign=top;spacingLeft=4;spacingRight=4;overflow=hidden;rotatable=0;points=[[0,0.5],[1,0.5]];portConstraint=eastwest;whiteSpace=wrap;html=1;" parent="gsCKZglPHFeSLRYfXybQ-23" vertex="1">
          <mxGeometry y="138" width="630" height="26" as="geometry" />
        </mxCell>
        <mxCell id="F0ha7dF1QaVIKSSiVNvj-3" value="+ serializeTaskList () : void" style="text;strokeColor=none;fillColor=none;align=left;verticalAlign=top;spacingLeft=4;spacingRight=4;overflow=hidden;rotatable=0;points=[[0,0.5],[1,0.5]];portConstraint=eastwest;whiteSpace=wrap;html=1;" parent="gsCKZglPHFeSLRYfXybQ-23" vertex="1">
          <mxGeometry y="164" width="630" height="26" as="geometry" />
        </mxCell>
        <mxCell id="F0ha7dF1QaVIKSSiVNvj-6" value="+ serializeId() : void" style="text;strokeColor=none;fillColor=none;align=left;verticalAlign=top;spacingLeft=4;spacingRight=4;overflow=hidden;rotatable=0;points=[[0,0.5],[1,0.5]];portConstraint=eastwest;whiteSpace=wrap;html=1;" parent="gsCKZglPHFeSLRYfXybQ-23" vertex="1">
          <mxGeometry y="190" width="630" height="26" as="geometry" />
        </mxCell>
        <mxCell id="F0ha7dF1QaVIKSSiVNvj-5" value="+ deserializeMap() : void" style="text;strokeColor=none;fillColor=none;align=left;verticalAlign=top;spacingLeft=4;spacingRight=4;overflow=hidden;rotatable=0;points=[[0,0.5],[1,0.5]];portConstraint=eastwest;whiteSpace=wrap;html=1;" parent="gsCKZglPHFeSLRYfXybQ-23" vertex="1">
          <mxGeometry y="216" width="630" height="26" as="geometry" />
        </mxCell>
        <mxCell id="F0ha7dF1QaVIKSSiVNvj-4" value="+ deserializeTaskList() : void" style="text;strokeColor=none;fillColor=none;align=left;verticalAlign=top;spacingLeft=4;spacingRight=4;overflow=hidden;rotatable=0;points=[[0,0.5],[1,0.5]];portConstraint=eastwest;whiteSpace=wrap;html=1;" parent="gsCKZglPHFeSLRYfXybQ-23" vertex="1">
          <mxGeometry y="242" width="630" height="26" as="geometry" />
        </mxCell>
        <mxCell id="F0ha7dF1QaVIKSSiVNvj-1" value="+ deserializeId () : void" style="text;strokeColor=none;fillColor=none;align=left;verticalAlign=top;spacingLeft=4;spacingRight=4;overflow=hidden;rotatable=0;points=[[0,0.5],[1,0.5]];portConstraint=eastwest;whiteSpace=wrap;html=1;" parent="gsCKZglPHFeSLRYfXybQ-23" vertex="1">
          <mxGeometry y="268" width="630" height="26" as="geometry" />
        </mxCell>
        <mxCell id="4f8afUCtdIZkkw5ZLQad-2" value="+ modifyTaskStatus(idEmployee: int , idTask : int, statusModified : String): void" style="text;strokeColor=none;fillColor=none;align=left;verticalAlign=top;spacingLeft=4;spacingRight=4;overflow=hidden;rotatable=0;points=[[0,0.5],[1,0.5]];portConstraint=eastwest;whiteSpace=wrap;html=1;" parent="gsCKZglPHFeSLRYfXybQ-23" vertex="1">
          <mxGeometry y="294" width="630" height="26" as="geometry" />
        </mxCell>
        <mxCell id="4f8afUCtdIZkkw5ZLQad-3" value="+ assignTaskToEmployee(idEmployee : int , currentTask: Task) : void" style="text;strokeColor=none;fillColor=none;align=left;verticalAlign=top;spacingLeft=4;spacingRight=4;overflow=hidden;rotatable=0;points=[[0,0.5],[1,0.5]];portConstraint=eastwest;whiteSpace=wrap;html=1;" parent="gsCKZglPHFeSLRYfXybQ-23" vertex="1">
          <mxGeometry y="320" width="630" height="26" as="geometry" />
        </mxCell>
        <mxCell id="4f8afUCtdIZkkw5ZLQad-4" value="+ addTaskInApplication(task : Task) :void" style="text;strokeColor=none;fillColor=none;align=left;verticalAlign=top;spacingLeft=4;spacingRight=4;overflow=hidden;rotatable=0;points=[[0,0.5],[1,0.5]];portConstraint=eastwest;whiteSpace=wrap;html=1;" parent="gsCKZglPHFeSLRYfXybQ-23" vertex="1">
          <mxGeometry y="346" width="630" height="26" as="geometry" />
        </mxCell>
        <mxCell id="4f8afUCtdIZkkw5ZLQad-6" value="+ addTaskInComplexTask(complexTask : ComplexTask , task : Task) : void" style="text;strokeColor=none;fillColor=none;align=left;verticalAlign=top;spacingLeft=4;spacingRight=4;overflow=hidden;rotatable=0;points=[[0,0.5],[1,0.5]];portConstraint=eastwest;whiteSpace=wrap;html=1;" parent="gsCKZglPHFeSLRYfXybQ-23" vertex="1">
          <mxGeometry y="372" width="630" height="26" as="geometry" />
        </mxCell>
        <mxCell id="4f8afUCtdIZkkw5ZLQad-7" value="+ deleteTaskInComplexTask(complexTask : ComplexTask , task : Task) :void" style="text;strokeColor=none;fillColor=none;align=left;verticalAlign=top;spacingLeft=4;spacingRight=4;overflow=hidden;rotatable=0;points=[[0,0.5],[1,0.5]];portConstraint=eastwest;whiteSpace=wrap;html=1;" parent="gsCKZglPHFeSLRYfXybQ-23" vertex="1">
          <mxGeometry y="398" width="630" height="26" as="geometry" />
        </mxCell>
        <mxCell id="4f8afUCtdIZkkw5ZLQad-8" value="+ getListOfEmployeeFromMap() : List&amp;lt;Employee&amp;gt;" style="text;strokeColor=none;fillColor=none;align=left;verticalAlign=top;spacingLeft=4;spacingRight=4;overflow=hidden;rotatable=0;points=[[0,0.5],[1,0.5]];portConstraint=eastwest;whiteSpace=wrap;html=1;" parent="gsCKZglPHFeSLRYfXybQ-23" vertex="1">
          <mxGeometry y="424" width="630" height="26" as="geometry" />
        </mxCell>
        <mxCell id="4f8afUCtdIZkkw5ZLQad-9" value="- hasAlreadyTheTask( tasksOfEmployee : List&amp;lt;Task&amp;gt; , task :Task) boolean" style="text;strokeColor=none;fillColor=none;align=left;verticalAlign=top;spacingLeft=4;spacingRight=4;overflow=hidden;rotatable=0;points=[[0,0.5],[1,0.5]];portConstraint=eastwest;whiteSpace=wrap;html=1;" parent="gsCKZglPHFeSLRYfXybQ-23" vertex="1">
          <mxGeometry y="450" width="630" height="26" as="geometry" />
        </mxCell>
        <mxCell id="4f8afUCtdIZkkw5ZLQad-10" value="+ findListOfTasksFromMap( idEmployee: int) : List&amp;lt;Task&amp;gt;" style="text;strokeColor=none;fillColor=none;align=left;verticalAlign=top;spacingLeft=4;spacingRight=4;overflow=hidden;rotatable=0;points=[[0,0.5],[1,0.5]];portConstraint=eastwest;whiteSpace=wrap;html=1;" parent="gsCKZglPHFeSLRYfXybQ-23" vertex="1">
          <mxGeometry y="476" width="630" height="26" as="geometry" />
        </mxCell>
        <mxCell id="4f8afUCtdIZkkw5ZLQad-11" value="- findTaskInListToModify(tasks : List&amp;lt;Task&amp;gt; , idTask : int) Task" style="text;strokeColor=none;fillColor=none;align=left;verticalAlign=top;spacingLeft=4;spacingRight=4;overflow=hidden;rotatable=0;points=[[0,0.5],[1,0.5]];portConstraint=eastwest;whiteSpace=wrap;html=1;" parent="gsCKZglPHFeSLRYfXybQ-23" vertex="1">
          <mxGeometry y="502" width="630" height="26" as="geometry" />
        </mxCell>
        <mxCell id="4f8afUCtdIZkkw5ZLQad-12" value="+ fillAllComplexTaskFromMapAndUnassigned() : List&amp;lt;ComplexTask&amp;gt;" style="text;strokeColor=none;fillColor=none;align=left;verticalAlign=top;spacingLeft=4;spacingRight=4;overflow=hidden;rotatable=0;points=[[0,0.5],[1,0.5]];portConstraint=eastwest;whiteSpace=wrap;html=1;" parent="gsCKZglPHFeSLRYfXybQ-23" vertex="1">
          <mxGeometry y="528" width="630" height="26" as="geometry" />
        </mxCell>
        <mxCell id="4f8afUCtdIZkkw5ZLQad-13" value="- allComplexTasksRecursively( complexTaskFromList :ComplexTask , complexTasks : List&amp;lt;ComplexTask) : void" style="text;strokeColor=none;fillColor=none;align=left;verticalAlign=top;spacingLeft=4;spacingRight=4;overflow=hidden;rotatable=0;points=[[0,0.5],[1,0.5]];portConstraint=eastwest;whiteSpace=wrap;html=1;" parent="gsCKZglPHFeSLRYfXybQ-23" vertex="1">
          <mxGeometry y="554" width="630" height="26" as="geometry" />
        </mxCell>
        <mxCell id="_ZY3OqY5vGH6_oPAg5ww-2" value="Employee" style="swimlane;fontStyle=1;align=center;verticalAlign=top;childLayout=stackLayout;horizontal=1;startSize=26;horizontalStack=0;resizeParent=1;resizeParentMax=0;resizeLast=0;collapsible=1;marginBottom=0;whiteSpace=wrap;html=1;" parent="1" vertex="1">
          <mxGeometry x="-280" y="-210" width="160" height="108" as="geometry" />
        </mxCell>
        <mxCell id="_ZY3OqY5vGH6_oPAg5ww-3" value="-idEmployee:int" style="text;strokeColor=none;fillColor=none;align=left;verticalAlign=top;spacingLeft=4;spacingRight=4;overflow=hidden;rotatable=0;points=[[0,0.5],[1,0.5]];portConstraint=eastwest;whiteSpace=wrap;html=1;" parent="_ZY3OqY5vGH6_oPAg5ww-2" vertex="1">
          <mxGeometry y="26" width="160" height="22" as="geometry" />
        </mxCell>
        <mxCell id="_ZY3OqY5vGH6_oPAg5ww-34" value="-age: int" style="text;strokeColor=none;fillColor=none;align=left;verticalAlign=top;spacingLeft=4;spacingRight=4;overflow=hidden;rotatable=0;points=[[0,0.5],[1,0.5]];portConstraint=eastwest;whiteSpace=wrap;html=1;" parent="_ZY3OqY5vGH6_oPAg5ww-2" vertex="1">
          <mxGeometry y="48" width="160" height="26" as="geometry" />
        </mxCell>
        <mxCell id="_ZY3OqY5vGH6_oPAg5ww-6" value="-name : String" style="text;strokeColor=none;fillColor=none;align=left;verticalAlign=top;spacingLeft=4;spacingRight=4;overflow=hidden;rotatable=0;points=[[0,0.5],[1,0.5]];portConstraint=eastwest;whiteSpace=wrap;html=1;" parent="_ZY3OqY5vGH6_oPAg5ww-2" vertex="1">
          <mxGeometry y="74" width="160" height="26" as="geometry" />
        </mxCell>
        <mxCell id="_ZY3OqY5vGH6_oPAg5ww-4" value="" style="line;strokeWidth=1;fillColor=none;align=left;verticalAlign=middle;spacingTop=-1;spacingLeft=3;spacingRight=3;rotatable=0;labelPosition=right;points=[];portConstraint=eastwest;strokeColor=inherit;" parent="_ZY3OqY5vGH6_oPAg5ww-2" vertex="1">
          <mxGeometry y="100" width="160" height="8" as="geometry" />
        </mxCell>
        <mxCell id="_ZY3OqY5vGH6_oPAg5ww-7" value="" style="endArrow=diamondThin;endFill=0;endSize=24;html=1;rounded=0;entryX=0.75;entryY=0;entryDx=0;entryDy=0;exitX=1;exitY=0.5;exitDx=0;exitDy=0;" parent="1" source="_ZY3OqY5vGH6_oPAg5ww-34" target="gsCKZglPHFeSLRYfXybQ-23" edge="1">
          <mxGeometry width="160" relative="1" as="geometry">
            <mxPoint x="63" y="-150" as="sourcePoint" />
            <mxPoint x="70" y="120" as="targetPoint" />
            <Array as="points">
              <mxPoint x="63" y="-150" />
            </Array>
          </mxGeometry>
        </mxCell>
        <mxCell id="_ZY3OqY5vGH6_oPAg5ww-8" value="EmployeesManagement" style="swimlane;fontStyle=1;align=center;verticalAlign=top;childLayout=stackLayout;horizontal=1;startSize=26;horizontalStack=0;resizeParent=1;resizeParentMax=0;resizeLast=0;collapsible=1;marginBottom=0;whiteSpace=wrap;html=1;" parent="1" vertex="1">
          <mxGeometry x="-1010" y="240" width="400" height="216" as="geometry" />
        </mxCell>
        <mxCell id="_ZY3OqY5vGH6_oPAg5ww-25" value="&lt;div style=&quot;text-align: center;&quot;&gt;&lt;span style=&quot;background-color: transparent; color: light-dark(rgb(0, 0, 0), rgb(255, 255, 255));&quot;&gt;-taskManagement: TasksManagement&lt;/span&gt;&lt;/div&gt;" style="text;strokeColor=none;fillColor=none;align=left;verticalAlign=top;spacingLeft=4;spacingRight=4;overflow=hidden;rotatable=0;points=[[0,0.5],[1,0.5]];portConstraint=eastwest;whiteSpace=wrap;html=1;" parent="_ZY3OqY5vGH6_oPAg5ww-8" vertex="1">
          <mxGeometry y="26" width="400" height="26" as="geometry" />
        </mxCell>
        <mxCell id="cb2_STiwHfEfwVFLRFuv-12" value="-listOfHourRetainerForEmployee : List&amp;lt;&lt;span style=&quot;text-align: center;&quot;&gt;EmployeeHourRetainer&lt;/span&gt;&amp;gt;&amp;nbsp;" style="text;strokeColor=none;fillColor=none;align=left;verticalAlign=top;spacingLeft=4;spacingRight=4;overflow=hidden;rotatable=0;points=[[0,0.5],[1,0.5]];portConstraint=eastwest;whiteSpace=wrap;html=1;" parent="_ZY3OqY5vGH6_oPAg5ww-8" vertex="1">
          <mxGeometry y="52" width="400" height="26" as="geometry" />
        </mxCell>
        <mxCell id="_ZY3OqY5vGH6_oPAg5ww-10" value="" style="line;strokeWidth=1;fillColor=none;align=left;verticalAlign=middle;spacingTop=-1;spacingLeft=3;spacingRight=3;rotatable=0;labelPosition=right;points=[];portConstraint=eastwest;strokeColor=inherit;" parent="_ZY3OqY5vGH6_oPAg5ww-8" vertex="1">
          <mxGeometry y="78" width="400" height="8" as="geometry" />
        </mxCell>
        <mxCell id="_ZY3OqY5vGH6_oPAg5ww-11" value="+calculateEmployeeWorkDuration(idEmployee: int) :int" style="text;strokeColor=none;fillColor=none;align=left;verticalAlign=top;spacingLeft=4;spacingRight=4;overflow=hidden;rotatable=0;points=[[0,0.5],[1,0.5]];portConstraint=eastwest;whiteSpace=wrap;html=1;" parent="_ZY3OqY5vGH6_oPAg5ww-8" vertex="1">
          <mxGeometry y="86" width="400" height="26" as="geometry" />
        </mxCell>
        <mxCell id="_ZY3OqY5vGH6_oPAg5ww-12" value="+addEmployee(employee Employee) : void" style="text;strokeColor=none;fillColor=none;align=left;verticalAlign=top;spacingLeft=4;spacingRight=4;overflow=hidden;rotatable=0;points=[[0,0.5],[1,0.5]];portConstraint=eastwest;whiteSpace=wrap;html=1;" parent="_ZY3OqY5vGH6_oPAg5ww-8" vertex="1">
          <mxGeometry y="112" width="400" height="26" as="geometry" />
        </mxCell>
        <mxCell id="hb1Ye0WjrdyC9d1Gobza-11" value="- checkIfEmployeeAlreadyExists ( employee : Employee ) : boolean" style="text;strokeColor=none;fillColor=none;align=left;verticalAlign=top;spacingLeft=4;spacingRight=4;overflow=hidden;rotatable=0;points=[[0,0.5],[1,0.5]];portConstraint=eastwest;whiteSpace=wrap;html=1;" parent="_ZY3OqY5vGH6_oPAg5ww-8" vertex="1">
          <mxGeometry y="138" width="400" height="26" as="geometry" />
        </mxCell>
        <mxCell id="hb1Ye0WjrdyC9d1Gobza-14" value="- calculateNrOfHours(tasks : List&amp;lt;Task) : int" style="text;strokeColor=none;fillColor=none;align=left;verticalAlign=top;spacingLeft=4;spacingRight=4;overflow=hidden;rotatable=0;points=[[0,0.5],[1,0.5]];portConstraint=eastwest;whiteSpace=wrap;html=1;" parent="_ZY3OqY5vGH6_oPAg5ww-8" vertex="1">
          <mxGeometry y="164" width="400" height="26" as="geometry" />
        </mxCell>
        <mxCell id="hb1Ye0WjrdyC9d1Gobza-12" value="+setHourRetainerForEmployee() : List &amp;lt;&lt;span style=&quot;text-align: center;&quot;&gt;EmployeeHourRetainer&lt;/span&gt;&amp;gt;" style="text;strokeColor=none;fillColor=none;align=left;verticalAlign=top;spacingLeft=4;spacingRight=4;overflow=hidden;rotatable=0;points=[[0,0.5],[1,0.5]];portConstraint=eastwest;whiteSpace=wrap;html=1;" parent="_ZY3OqY5vGH6_oPAg5ww-8" vertex="1">
          <mxGeometry y="190" width="400" height="26" as="geometry" />
        </mxCell>
        <mxCell id="_ZY3OqY5vGH6_oPAg5ww-21" value="Utility" style="swimlane;fontStyle=1;align=center;verticalAlign=top;childLayout=stackLayout;horizontal=1;startSize=26;horizontalStack=0;resizeParent=1;resizeParentMax=0;resizeLast=0;collapsible=1;marginBottom=0;whiteSpace=wrap;html=1;" parent="1" vertex="1">
          <mxGeometry x="-1630" y="660" width="650" height="216" as="geometry" />
        </mxCell>
        <mxCell id="_ZY3OqY5vGH6_oPAg5ww-23" value="" style="line;strokeWidth=1;fillColor=none;align=left;verticalAlign=middle;spacingTop=-1;spacingLeft=3;spacingRight=3;rotatable=0;labelPosition=right;points=[];portConstraint=eastwest;strokeColor=inherit;" parent="_ZY3OqY5vGH6_oPAg5ww-21" vertex="1">
          <mxGeometry y="26" width="650" height="8" as="geometry" />
        </mxCell>
        <mxCell id="_ZY3OqY5vGH6_oPAg5ww-24" value="&lt;u&gt;+calculateStatusOfTaskPerEmployee :(map :Map&amp;lt;Employee , List&amp;lt;Task&amp;gt;&amp;gt;) : Map &amp;lt;String,Map&amp;lt;String,Integer&amp;gt;&amp;gt;&lt;/u&gt;" style="text;strokeColor=none;fillColor=none;align=left;verticalAlign=top;spacingLeft=4;spacingRight=4;overflow=hidden;rotatable=0;points=[[0,0.5],[1,0.5]];portConstraint=eastwest;whiteSpace=wrap;html=1;" parent="_ZY3OqY5vGH6_oPAg5ww-21" vertex="1">
          <mxGeometry y="34" width="650" height="26" as="geometry" />
        </mxCell>
        <mxCell id="_ZY3OqY5vGH6_oPAg5ww-32" value="&lt;u&gt;+sortByNrOfHoursGt40 : ( allHourReatinerList :List&amp;lt;EmployeeHourRetainer&amp;gt; ) : void&lt;/u&gt;" style="text;strokeColor=none;fillColor=none;align=left;verticalAlign=top;spacingLeft=4;spacingRight=4;overflow=hidden;rotatable=0;points=[[0,0.5],[1,0.5]];portConstraint=eastwest;whiteSpace=wrap;html=1;" parent="_ZY3OqY5vGH6_oPAg5ww-21" vertex="1">
          <mxGeometry y="60" width="650" height="26" as="geometry" />
        </mxCell>
        <mxCell id="hb1Ye0WjrdyC9d1Gobza-16" value="&lt;u&gt;- initMap : (employees : List&amp;lt;Employee&amp;gt; ) : Map&amp;lt;String, Map &amp;lt;String,Integer &amp;gt;&amp;gt;&amp;nbsp;&lt;/u&gt;" style="text;strokeColor=none;fillColor=none;align=left;verticalAlign=top;spacingLeft=4;spacingRight=4;overflow=hidden;rotatable=0;points=[[0,0.5],[1,0.5]];portConstraint=eastwest;whiteSpace=wrap;html=1;" parent="_ZY3OqY5vGH6_oPAg5ww-21" vertex="1">
          <mxGeometry y="86" width="650" height="26" as="geometry" />
        </mxCell>
        <mxCell id="hb1Ye0WjrdyC9d1Gobza-17" value="&lt;u&gt;- getListOfTaskWithEmployeessName : (employeeName: String , map : Map&amp;lt;Employee , List&amp;lt;Task &amp;gt;&amp;gt;) : List&amp;lt;Task&amp;gt;&lt;/u&gt;" style="text;strokeColor=none;fillColor=none;align=left;verticalAlign=top;spacingLeft=4;spacingRight=4;overflow=hidden;rotatable=0;points=[[0,0.5],[1,0.5]];portConstraint=eastwest;whiteSpace=wrap;html=1;" parent="_ZY3OqY5vGH6_oPAg5ww-21" vertex="1">
          <mxGeometry y="112" width="650" height="26" as="geometry" />
        </mxCell>
        <mxCell id="hb1Ye0WjrdyC9d1Gobza-18" value="&lt;u&gt;- nrOfStatusTask ( tasks : List&amp;lt;Task&amp;gt; , status: String) : int&lt;/u&gt;" style="text;strokeColor=none;fillColor=none;align=left;verticalAlign=top;spacingLeft=4;spacingRight=4;overflow=hidden;rotatable=0;points=[[0,0.5],[1,0.5]];portConstraint=eastwest;whiteSpace=wrap;html=1;" parent="_ZY3OqY5vGH6_oPAg5ww-21" vertex="1">
          <mxGeometry y="138" width="650" height="26" as="geometry" />
        </mxCell>
        <mxCell id="hb1Ye0WjrdyC9d1Gobza-15" value="&lt;u&gt;- initInnerHash (tasks : List&amp;lt;Task &amp;gt; ) : HashMap &amp;lt;String , Integer&amp;gt;&lt;/u&gt;" style="text;strokeColor=none;fillColor=none;align=left;verticalAlign=top;spacingLeft=4;spacingRight=4;overflow=hidden;rotatable=0;points=[[0,0.5],[1,0.5]];portConstraint=eastwest;whiteSpace=wrap;html=1;" parent="_ZY3OqY5vGH6_oPAg5ww-21" vertex="1">
          <mxGeometry y="164" width="650" height="26" as="geometry" />
        </mxCell>
        <mxCell id="hb1Ye0WjrdyC9d1Gobza-19" value="&lt;u&gt;- listOfEmployeeInMap ( map : Map&amp;lt;Employee , List&amp;lt;Task &amp;gt;&amp;gt; ) : List&amp;lt;Employee&amp;gt;&amp;nbsp;&lt;/u&gt;" style="text;strokeColor=none;fillColor=none;align=left;verticalAlign=top;spacingLeft=4;spacingRight=4;overflow=hidden;rotatable=0;points=[[0,0.5],[1,0.5]];portConstraint=eastwest;whiteSpace=wrap;html=1;" parent="_ZY3OqY5vGH6_oPAg5ww-21" vertex="1">
          <mxGeometry y="190" width="650" height="26" as="geometry" />
        </mxCell>
        <mxCell id="cb2_STiwHfEfwVFLRFuv-1" value="" style="endArrow=diamondThin;endFill=1;endSize=24;html=1;rounded=0;exitX=-0.004;exitY=0.791;exitDx=0;exitDy=0;entryX=1;entryY=0.5;entryDx=0;entryDy=0;exitPerimeter=0;" parent="1" source="F0ha7dF1QaVIKSSiVNvj-5" target="_ZY3OqY5vGH6_oPAg5ww-12" edge="1">
          <mxGeometry width="160" relative="1" as="geometry">
            <mxPoint x="-340" y="280" as="sourcePoint" />
            <mxPoint x="-520" y="180" as="targetPoint" />
            <Array as="points" />
          </mxGeometry>
        </mxCell>
        <mxCell id="cb2_STiwHfEfwVFLRFuv-2" value="SerializationOperations" style="swimlane;fontStyle=1;align=center;verticalAlign=top;childLayout=stackLayout;horizontal=1;startSize=26;horizontalStack=0;resizeParent=1;resizeParentMax=0;resizeLast=0;collapsible=1;marginBottom=0;whiteSpace=wrap;html=1;" parent="1" vertex="1">
          <mxGeometry x="-710" y="-40" width="360" height="138" as="geometry" />
        </mxCell>
        <mxCell id="cb2_STiwHfEfwVFLRFuv-4" value="" style="line;strokeWidth=1;fillColor=none;align=left;verticalAlign=middle;spacingTop=-1;spacingLeft=3;spacingRight=3;rotatable=0;labelPosition=right;points=[];portConstraint=eastwest;strokeColor=inherit;" parent="cb2_STiwHfEfwVFLRFuv-2" vertex="1">
          <mxGeometry y="26" width="360" height="8" as="geometry" />
        </mxCell>
        <mxCell id="cb2_STiwHfEfwVFLRFuv-5" value="&lt;u&gt;- initWriteFile(fileName : String , objectToWrite : Object): void&lt;/u&gt;" style="text;strokeColor=none;fillColor=none;align=left;verticalAlign=top;spacingLeft=4;spacingRight=4;overflow=hidden;rotatable=0;points=[[0,0.5],[1,0.5]];portConstraint=eastwest;whiteSpace=wrap;html=1;" parent="cb2_STiwHfEfwVFLRFuv-2" vertex="1">
          <mxGeometry y="34" width="360" height="26" as="geometry" />
        </mxCell>
        <mxCell id="cb2_STiwHfEfwVFLRFuv-6" value="&lt;u&gt;- initReadFile(fileName : String): Object&lt;/u&gt;" style="text;strokeColor=none;fillColor=none;align=left;verticalAlign=top;spacingLeft=4;spacingRight=4;overflow=hidden;rotatable=0;points=[[0,0.5],[1,0.5]];portConstraint=eastwest;whiteSpace=wrap;html=1;" parent="cb2_STiwHfEfwVFLRFuv-2" vertex="1">
          <mxGeometry y="60" width="360" height="26" as="geometry" />
        </mxCell>
        <mxCell id="cb2_STiwHfEfwVFLRFuv-8" value="&lt;u&gt;+ writeFile(objectSerialized : Object) : void&lt;/u&gt;" style="text;strokeColor=none;fillColor=none;align=left;verticalAlign=top;spacingLeft=4;spacingRight=4;overflow=hidden;rotatable=0;points=[[0,0.5],[1,0.5]];portConstraint=eastwest;whiteSpace=wrap;html=1;" parent="cb2_STiwHfEfwVFLRFuv-2" vertex="1">
          <mxGeometry y="86" width="360" height="26" as="geometry" />
        </mxCell>
        <mxCell id="cb2_STiwHfEfwVFLRFuv-7" value="&lt;u&gt;+ readFile(file : String) : Object&lt;/u&gt;" style="text;strokeColor=none;fillColor=none;align=left;verticalAlign=top;spacingLeft=4;spacingRight=4;overflow=hidden;rotatable=0;points=[[0,0.5],[1,0.5]];portConstraint=eastwest;whiteSpace=wrap;html=1;" parent="cb2_STiwHfEfwVFLRFuv-2" vertex="1">
          <mxGeometry y="112" width="360" height="26" as="geometry" />
        </mxCell>
        <mxCell id="hb1Ye0WjrdyC9d1Gobza-1" value="EmployeeHourRetainer" style="swimlane;fontStyle=1;align=center;verticalAlign=top;childLayout=stackLayout;horizontal=1;startSize=26;horizontalStack=0;resizeParent=1;resizeParentMax=0;resizeLast=0;collapsible=1;marginBottom=0;whiteSpace=wrap;html=1;" parent="1" vertex="1">
          <mxGeometry x="-987" y="-150" width="160" height="86" as="geometry" />
        </mxCell>
        <mxCell id="hb1Ye0WjrdyC9d1Gobza-2" value="-employee: Employee" style="text;strokeColor=none;fillColor=none;align=left;verticalAlign=top;spacingLeft=4;spacingRight=4;overflow=hidden;rotatable=0;points=[[0,0.5],[1,0.5]];portConstraint=eastwest;whiteSpace=wrap;html=1;" parent="hb1Ye0WjrdyC9d1Gobza-1" vertex="1">
          <mxGeometry y="26" width="160" height="26" as="geometry" />
        </mxCell>
        <mxCell id="hb1Ye0WjrdyC9d1Gobza-5" value="-nrOfHoursWork : int" style="text;strokeColor=none;fillColor=none;align=left;verticalAlign=top;spacingLeft=4;spacingRight=4;overflow=hidden;rotatable=0;points=[[0,0.5],[1,0.5]];portConstraint=eastwest;whiteSpace=wrap;html=1;" parent="hb1Ye0WjrdyC9d1Gobza-1" vertex="1">
          <mxGeometry y="52" width="160" height="26" as="geometry" />
        </mxCell>
        <mxCell id="hb1Ye0WjrdyC9d1Gobza-3" value="" style="line;strokeWidth=1;fillColor=none;align=left;verticalAlign=middle;spacingTop=-1;spacingLeft=3;spacingRight=3;rotatable=0;labelPosition=right;points=[];portConstraint=eastwest;strokeColor=inherit;" parent="hb1Ye0WjrdyC9d1Gobza-1" vertex="1">
          <mxGeometry y="78" width="160" height="8" as="geometry" />
        </mxCell>
        <mxCell id="hb1Ye0WjrdyC9d1Gobza-6" value="" style="endArrow=none;html=1;edgeStyle=orthogonalEdgeStyle;rounded=0;exitX=0.75;exitY=0;exitDx=0;exitDy=0;entryX=0;entryY=0.5;entryDx=0;entryDy=0;" parent="1" source="hb1Ye0WjrdyC9d1Gobza-1" target="_ZY3OqY5vGH6_oPAg5ww-3" edge="1">
          <mxGeometry relative="1" as="geometry">
            <mxPoint x="-677" y="-480" as="sourcePoint" />
            <mxPoint x="-330" y="-160" as="targetPoint" />
            <Array as="points">
              <mxPoint x="-867" y="-250" />
              <mxPoint x="-330" y="-250" />
              <mxPoint x="-330" y="-210" />
              <mxPoint x="-280" y="-210" />
            </Array>
          </mxGeometry>
        </mxCell>
        <mxCell id="hb1Ye0WjrdyC9d1Gobza-7" value="1" style="edgeLabel;resizable=0;html=1;align=left;verticalAlign=bottom;" parent="hb1Ye0WjrdyC9d1Gobza-6" connectable="0" vertex="1">
          <mxGeometry x="-1" relative="1" as="geometry" />
        </mxCell>
        <mxCell id="hb1Ye0WjrdyC9d1Gobza-8" value="1" style="edgeLabel;resizable=0;html=1;align=right;verticalAlign=bottom;" parent="hb1Ye0WjrdyC9d1Gobza-6" connectable="0" vertex="1">
          <mxGeometry x="1" relative="1" as="geometry" />
        </mxCell>
        <mxCell id="hb1Ye0WjrdyC9d1Gobza-9" value="" style="endArrow=diamondThin;endFill=0;endSize=24;html=1;rounded=0;entryX=0.25;entryY=0;entryDx=0;entryDy=0;exitX=0.5;exitY=1;exitDx=0;exitDy=0;" parent="1" source="hb1Ye0WjrdyC9d1Gobza-1" target="_ZY3OqY5vGH6_oPAg5ww-8" edge="1">
          <mxGeometry width="160" relative="1" as="geometry">
            <mxPoint x="-1499.9999999999998" y="226" as="sourcePoint" />
            <mxPoint x="-1060" y="490" as="targetPoint" />
            <Array as="points" />
          </mxGeometry>
        </mxCell>
        <mxCell id="hb1Ye0WjrdyC9d1Gobza-21" value="GUI" style="swimlane;fontStyle=1;align=center;verticalAlign=top;childLayout=stackLayout;horizontal=1;startSize=26;horizontalStack=0;resizeParent=1;resizeParentMax=0;resizeLast=0;collapsible=1;marginBottom=0;whiteSpace=wrap;html=1;" parent="1" vertex="1">
          <mxGeometry x="-770" y="620" width="260" height="242" as="geometry" />
        </mxCell>
        <mxCell id="p8pjEw0joS4cmYBz9ySb-1" value="+MainMenuPage" style="text;strokeColor=none;fillColor=none;align=left;verticalAlign=top;spacingLeft=4;spacingRight=4;overflow=hidden;rotatable=0;points=[[0,0.5],[1,0.5]];portConstraint=eastwest;whiteSpace=wrap;html=1;" parent="hb1Ye0WjrdyC9d1Gobza-21" vertex="1">
          <mxGeometry y="26" width="260" height="26" as="geometry" />
        </mxCell>
        <mxCell id="p8pjEw0joS4cmYBz9ySb-2" value="+AddEmployeePage" style="text;strokeColor=none;fillColor=none;align=left;verticalAlign=top;spacingLeft=4;spacingRight=4;overflow=hidden;rotatable=0;points=[[0,0.5],[1,0.5]];portConstraint=eastwest;whiteSpace=wrap;html=1;" parent="hb1Ye0WjrdyC9d1Gobza-21" vertex="1">
          <mxGeometry y="52" width="260" height="26" as="geometry" />
        </mxCell>
        <mxCell id="p8pjEw0joS4cmYBz9ySb-4" value="+AddTaskPage" style="text;strokeColor=none;fillColor=none;align=left;verticalAlign=top;spacingLeft=4;spacingRight=4;overflow=hidden;rotatable=0;points=[[0,0.5],[1,0.5]];portConstraint=eastwest;whiteSpace=wrap;html=1;" parent="hb1Ye0WjrdyC9d1Gobza-21" vertex="1">
          <mxGeometry y="78" width="260" height="26" as="geometry" />
        </mxCell>
        <mxCell id="p8pjEw0joS4cmYBz9ySb-3" value="+OperationsOnComplexTasksPage" style="text;strokeColor=none;fillColor=none;align=left;verticalAlign=top;spacingLeft=4;spacingRight=4;overflow=hidden;rotatable=0;points=[[0,0.5],[1,0.5]];portConstraint=eastwest;whiteSpace=wrap;html=1;" parent="hb1Ye0WjrdyC9d1Gobza-21" vertex="1">
          <mxGeometry y="104" width="260" height="26" as="geometry" />
        </mxCell>
        <mxCell id="p8pjEw0joS4cmYBz9ySb-6" value="+ViewEmployeesPage" style="text;strokeColor=none;fillColor=none;align=left;verticalAlign=top;spacingLeft=4;spacingRight=4;overflow=hidden;rotatable=0;points=[[0,0.5],[1,0.5]];portConstraint=eastwest;whiteSpace=wrap;html=1;" parent="hb1Ye0WjrdyC9d1Gobza-21" vertex="1">
          <mxGeometry y="130" width="260" height="26" as="geometry" />
        </mxCell>
        <mxCell id="p8pjEw0joS4cmYBz9ySb-7" value="+ViewStatisticsPage" style="text;strokeColor=none;fillColor=none;align=left;verticalAlign=top;spacingLeft=4;spacingRight=4;overflow=hidden;rotatable=0;points=[[0,0.5],[1,0.5]];portConstraint=eastwest;whiteSpace=wrap;html=1;" parent="hb1Ye0WjrdyC9d1Gobza-21" vertex="1">
          <mxGeometry y="156" width="260" height="26" as="geometry" />
        </mxCell>
        <mxCell id="p8pjEw0joS4cmYBz9ySb-5" value="+ModifyStatusPage" style="text;strokeColor=none;fillColor=none;align=left;verticalAlign=top;spacingLeft=4;spacingRight=4;overflow=hidden;rotatable=0;points=[[0,0.5],[1,0.5]];portConstraint=eastwest;whiteSpace=wrap;html=1;" parent="hb1Ye0WjrdyC9d1Gobza-21" vertex="1">
          <mxGeometry y="182" width="260" height="26" as="geometry" />
        </mxCell>
        <mxCell id="p8pjEw0joS4cmYBz9ySb-8" value="+AssignTaskToEmployeePage" style="text;strokeColor=none;fillColor=none;align=left;verticalAlign=top;spacingLeft=4;spacingRight=4;overflow=hidden;rotatable=0;points=[[0,0.5],[1,0.5]];portConstraint=eastwest;whiteSpace=wrap;html=1;" parent="hb1Ye0WjrdyC9d1Gobza-21" vertex="1">
          <mxGeometry y="208" width="260" height="26" as="geometry" />
        </mxCell>
        <mxCell id="hb1Ye0WjrdyC9d1Gobza-23" value="" style="line;strokeWidth=1;fillColor=none;align=left;verticalAlign=middle;spacingTop=-1;spacingLeft=3;spacingRight=3;rotatable=0;labelPosition=right;points=[];portConstraint=eastwest;strokeColor=inherit;" parent="hb1Ye0WjrdyC9d1Gobza-21" vertex="1">
          <mxGeometry y="234" width="260" height="8" as="geometry" />
        </mxCell>
        <mxCell id="5cFu9hZjhDzIWa3dSsun-1" value="" style="endArrow=diamondThin;endFill=1;endSize=24;html=1;rounded=0;entryX=0.25;entryY=0;entryDx=0;entryDy=0;exitX=0.764;exitY=1.013;exitDx=0;exitDy=0;exitPerimeter=0;" parent="1" source="hb1Ye0WjrdyC9d1Gobza-12" target="hb1Ye0WjrdyC9d1Gobza-21" edge="1">
          <mxGeometry width="160" relative="1" as="geometry">
            <mxPoint x="-690" y="340" as="sourcePoint" />
            <mxPoint x="-550" y="260" as="targetPoint" />
          </mxGeometry>
        </mxCell>
        <mxCell id="5cFu9hZjhDzIWa3dSsun-2" value="" style="endArrow=diamondThin;endFill=1;endSize=24;html=1;rounded=0;entryX=1;entryY=0.5;entryDx=0;entryDy=0;exitX=0.46;exitY=1.035;exitDx=0;exitDy=0;exitPerimeter=0;" parent="1" source="4f8afUCtdIZkkw5ZLQad-13" target="p8pjEw0joS4cmYBz9ySb-6" edge="1">
          <mxGeometry width="160" relative="1" as="geometry">
            <mxPoint x="-80" y="530" as="sourcePoint" />
            <mxPoint x="-440" y="660" as="targetPoint" />
            <Array as="points">
              <mxPoint x="-120" y="760" />
              <mxPoint x="-160" y="760" />
            </Array>
          </mxGeometry>
        </mxCell>
        <mxCell id="4f8afUCtdIZkkw5ZLQad-14" value="" style="endArrow=diamondThin;endFill=0;endSize=24;html=1;rounded=0;entryX=1;entryY=0.5;entryDx=0;entryDy=0;exitX=-0.008;exitY=0.085;exitDx=0;exitDy=0;exitPerimeter=0;" parent="1" source="hb1Ye0WjrdyC9d1Gobza-20" target="4f8afUCtdIZkkw5ZLQad-4" edge="1">
          <mxGeometry width="160" relative="1" as="geometry">
            <mxPoint x="-40" y="400" as="sourcePoint" />
            <mxPoint x="120" y="400" as="targetPoint" />
          </mxGeometry>
        </mxCell>
        <mxCell id="Y0QfPvUyzkec4EkyB_ca-1" value="" style="endArrow=open;endSize=12;dashed=1;html=1;rounded=0;exitX=0;exitY=0.5;exitDx=0;exitDy=0;" parent="1" source="cb2_STiwHfEfwVFLRFuv-6" edge="1">
          <mxGeometry width="160" relative="1" as="geometry">
            <mxPoint x="-710" y="160" as="sourcePoint" />
            <mxPoint x="-760" y="237" as="targetPoint" />
            <Array as="points">
              <mxPoint x="-760" y="33" />
            </Array>
          </mxGeometry>
        </mxCell>
        <mxCell id="Y0QfPvUyzkec4EkyB_ca-2" value="" style="endArrow=open;endSize=12;dashed=1;html=1;rounded=0;exitX=1;exitY=0.5;exitDx=0;exitDy=0;entryX=0.25;entryY=0;entryDx=0;entryDy=0;" parent="1" source="cb2_STiwHfEfwVFLRFuv-6" target="gsCKZglPHFeSLRYfXybQ-23" edge="1">
          <mxGeometry x="0.0819" y="-2" width="160" relative="1" as="geometry">
            <mxPoint x="-560" y="130" as="sourcePoint" />
            <mxPoint x="-400" y="130" as="targetPoint" />
            <Array as="points">
              <mxPoint x="-250" y="33" />
            </Array>
            <mxPoint as="offset" />
          </mxGeometry>
        </mxCell>
        <mxCell id="Y0QfPvUyzkec4EkyB_ca-4" value="" style="endArrow=open;endSize=12;dashed=1;html=1;rounded=0;entryX=0;entryY=0.5;entryDx=0;entryDy=0;exitX=1;exitY=0.5;exitDx=0;exitDy=0;" parent="1" source="hb1Ye0WjrdyC9d1Gobza-16" target="p8pjEw0joS4cmYBz9ySb-6" edge="1">
          <mxGeometry width="160" relative="1" as="geometry">
            <mxPoint x="-920" y="760" as="sourcePoint" />
            <mxPoint x="-970" y="760" as="targetPoint" />
          </mxGeometry>
        </mxCell>
        <mxCell id="ZCtDIS6oaAfY2ZfHyHB4-1" value="" style="endArrow=none;html=1;edgeStyle=orthogonalEdgeStyle;rounded=0;exitX=0.5;exitY=0;exitDx=0;exitDy=0;entryX=0;entryY=0.5;entryDx=0;entryDy=0;" edge="1" parent="1" source="_ZY3OqY5vGH6_oPAg5ww-8" target="_ZY3OqY5vGH6_oPAg5ww-34">
          <mxGeometry relative="1" as="geometry">
            <mxPoint x="-660" y="170" as="sourcePoint" />
            <mxPoint x="-500" y="170" as="targetPoint" />
          </mxGeometry>
        </mxCell>
        <mxCell id="ZCtDIS6oaAfY2ZfHyHB4-13" value="" style="endArrow=diamondThin;endFill=0;endSize=24;html=1;rounded=0;exitX=0.55;exitY=1.17;exitDx=0;exitDy=0;exitPerimeter=0;entryX=0.22;entryY=1.192;entryDx=0;entryDy=0;entryPerimeter=0;" edge="1" parent="1" target="hb1Ye0WjrdyC9d1Gobza-12">
          <mxGeometry width="160" relative="1" as="geometry">
            <mxPoint x="437.99999999999955" y="548.0000000000001" as="sourcePoint" />
            <mxPoint x="-960" y="950" as="targetPoint" />
            <Array as="points">
              <mxPoint x="438" y="960" />
              <mxPoint x="-250" y="960" />
              <mxPoint x="-930" y="950" />
            </Array>
          </mxGeometry>
        </mxCell>
        <mxCell id="ZCtDIS6oaAfY2ZfHyHB4-14" value="" style="endArrow=diamondThin;endFill=0;endSize=24;html=1;rounded=0;entryX=0.798;entryY=0.923;entryDx=0;entryDy=0;entryPerimeter=0;" edge="1" parent="1" target="hb1Ye0WjrdyC9d1Gobza-19">
          <mxGeometry width="160" relative="1" as="geometry">
            <mxPoint x="-930" y="950" as="sourcePoint" />
            <mxPoint x="-1180" y="950" as="targetPoint" />
            <Array as="points">
              <mxPoint x="-1110" y="950" />
            </Array>
          </mxGeometry>
        </mxCell>
        <mxCell id="ZCtDIS6oaAfY2ZfHyHB4-15" value="" style="endArrow=diamondThin;endFill=0;endSize=24;html=1;rounded=0;exitX=0.5;exitY=0;exitDx=0;exitDy=0;entryX=0.5;entryY=0;entryDx=0;entryDy=0;" edge="1" parent="1" source="_ZY3OqY5vGH6_oPAg5ww-2" target="_ZY3OqY5vGH6_oPAg5ww-21">
          <mxGeometry width="160" relative="1" as="geometry">
            <mxPoint x="-350" y="-240" as="sourcePoint" />
            <mxPoint x="-200" y="-340" as="targetPoint" />
            <Array as="points">
              <mxPoint x="-200" y="-310" />
              <mxPoint x="-1305" y="-320" />
            </Array>
          </mxGeometry>
        </mxCell>
      </root>
    </mxGraphModel>
  </diagram>
</mxfile>
